<svg xmlns="http://www.w3.org/2000/svg" width="78.293" height="45" viewBox="0 0 78.293 45">
  <g id="JAST_logo" transform="translate(-66.83 -44.133)">
    <g id="Group_141" data-name="Group 141" transform="translate(66.83 44.592)">
      <path id="Path_8" data-name="Path 8" d="M73.947,114.487A7.119,7.119,0,0,1,66.83,121.6v5.339a12.437,12.437,0,0,0,12.456-12.456V89.52H73.947Z" transform="translate(-66.83 -82.401)" fill="#fff"/>
      <path id="Path_9" data-name="Path 9" d="M182.333,91.707a12.473,12.473,0,1,0,0,20.483v2.232h5.339V89.512h-5.339ZM180.248,107a7.114,7.114,0,1,1,2.085-5.032A6.855,6.855,0,0,1,180.248,107Z" transform="translate(-146.745 -82.393)" fill="#fff"/>
      <path id="Path_10" data-name="Path 10" d="M344.25,99.054q-5.923-1.472-5.922-3.087-.083-1.084,2.753-1.112h9.87V89.518H340.275q-7.117-.055-7.117,7.284a6.771,6.771,0,0,0,1.654,4.6q1.655,1.906,9.356,3.823,2.279.583,2.28,2.03-.14,1.7-3.643,1.835H333.13l.028,5.339h9.786q4.447,0,6.756-2.03a7.57,7.57,0,0,0,2.307-6.005,6.075,6.075,0,0,0-1.71-4.643Q348.586,100.139,344.25,99.054Z" transform="translate(-288.672 -82.399)" fill="#fff"/>
      <path id="Path_11" data-name="Path 11" d="M473.646,59.336V54h-7.117V46.88H461.19V66.453a12.437,12.437,0,0,0,12.456,12.456V73.57a7.119,7.119,0,0,1-7.117-7.117V59.336Z" transform="translate(-395.353 -46.88)" fill="#fff"/>
    </g>
    <rect id="Rectangle_92" data-name="Rectangle 92" width="2.526" height="5.513" transform="translate(73.774 49.757) rotate(-90)" fill="#fff"/>
    <rect id="Rectangle_93" data-name="Rectangle 93" width="1.262" height="5.513" transform="translate(73.773 45.395) rotate(-90)" fill="#fff"/>
  </g>
</svg>